# xmcd CD database file
#
# Track frame offsets:
#	150
#	11418
#	28986
#	47416
#	65489
#	82912
#	97274
#	116180
#	132435
#	149904
#	163572
#	176337
#	196180
#	212015
#
# Disc length: 3015 seconds
#
# Revision: 0
# Processed by: cddbd v1.4PL0 Copyright (c) Steve Scherf et al.
# Submitted via: Feurio! 1.65 - http://www.feurio.com
#
DISCID=c80bc50e
DTITLE=John Michael Montgomery - Greatest Hits
DYEAR=1900
DGENRE=Country
TTITLE0=Sold -1995
TTITLE1=If You've Got Love -1994
TTITLE2=Rope The Moon -1994
TTITLE3=I Love The Way You Love Me -1992
TTITLE4=Friends -1996
TTITLE5=Cowboy Love -1995
TTITLE6=I Miss You A Little -1996
TTITLE7=Beer And Bones -1992
TTITLE8=I Can Love You Like That -1995
TTITLE9=No Man's Land -1995
TTITLE10=Be My Baby Tonight -1994
TTITLE11=I Swear -1994
TTITLE12=Angel In My Eyes -1997
TTITLE13=Life's A Dance -1992
EXTD=
EXTT0=v.CD"John Michael Montgomery"
EXTT1=v.CD"Kickin' It Up"
EXTT2=v.CD"Kickin' It Up"
EXTT3=v.CD"Life's A Dance"
EXTT4=v.CD"What I Do The Best"
EXTT5=v.CD"John Michael Montgomery"
EXTT6=v.CD"What I Do The Best"
EXTT7=v.CD"Life's A Dance"
EXTT8=v.CD"John Michael Montgomery"
EXTT9=v.CD"John Michael Montgomery"
EXTT10=v.CD"Kickin' It Up"
EXTT11=v.CD"Kickin' It Up"
EXTT12=Unveröffentlicht
EXTT13=v.CD"Life's A Dance"
PLAYORDER=
